<svg version="1.1" xmlns="http://www.w3.org/2000/svg" xmlns:xlink="http://www.w3.org/1999/xlink"  viewBox="0 0 752 80">
<defs>
<symbol id="icon-ac" viewBox="0 0 32 32" stroke="none" fill="inherit">
<path d="M25 4c-1.326 0-2.598 0.527-3.535 1.464s-1.465 2.209-1.465 3.536c0 0.265-0.105 0.52-0.293 0.707s-0.442 0.293-0.707 0.293c-0.265 0-0.52-0.105-0.707-0.293s-0.293-0.442-0.293-0.707c0-1.384 0.41-2.738 1.18-3.889s1.862-2.048 3.142-2.578c1.279-0.53 2.687-0.668 4.044-0.398s2.605 0.937 3.584 1.916c0.979 0.979 1.646 2.226 1.916 3.584s0.131 2.765-0.398 4.044c-0.53 1.279-1.427 2.372-2.578 3.142s-2.505 1.18-3.889 1.18h-24c-0.265 0-0.52-0.105-0.707-0.293s-0.293-0.442-0.293-0.707c0-0.265 0.105-0.52 0.293-0.707s0.442-0.293 0.707-0.293h24c1.326 0 2.598-0.527 3.535-1.464s1.465-2.209 1.465-3.536-0.527-2.598-1.465-3.536c-0.938-0.938-2.209-1.464-3.535-1.464zM11 6c-0.53 0-1.039 0.211-1.414 0.586s-0.586 0.884-0.586 1.414c0 0.265-0.105 0.52-0.293 0.707s-0.442 0.293-0.707 0.293c-0.265 0-0.52-0.105-0.707-0.293s-0.293-0.442-0.293-0.707c0-0.791 0.235-1.564 0.674-2.222s1.064-1.171 1.795-1.473c0.731-0.303 1.535-0.382 2.311-0.228s1.489 0.535 2.048 1.095 0.94 1.272 1.095 2.048c0.154 0.776 0.075 1.58-0.228 2.311s-0.815 1.356-1.473 1.795-1.431 0.674-2.222 0.674h-10c-0.265 0-0.52-0.105-0.707-0.293s-0.293-0.442-0.293-0.707c0-0.265 0.105-0.52 0.293-0.707s0.442-0.293 0.707-0.293h10c0.53 0 1.039-0.211 1.414-0.586s0.586-0.884 0.586-1.414c0-0.53-0.211-1.039-0.586-1.414s-0.884-0.586-1.414-0.586zM0 19c0-0.265 0.105-0.52 0.293-0.707s0.442-0.293 0.707-0.293h20.084c1.187 0 2.347 0.352 3.333 1.011s1.756 1.596 2.21 2.693c0.454 1.096 0.573 2.303 0.341 3.467s-0.803 2.233-1.642 3.072c-0.839 0.839-1.908 1.411-3.072 1.642s-2.37 0.113-3.467-0.341-2.033-1.223-2.693-2.21c-0.659-0.987-1.011-2.147-1.011-3.333 0-0.265 0.105-0.52 0.293-0.707s0.442-0.293 0.707-0.293c0.265 0 0.52 0.105 0.707 0.293s0.293 0.442 0.293 0.707c0 0.791 0.235 1.564 0.674 2.222s1.064 1.171 1.795 1.473c0.731 0.303 1.535 0.382 2.311 0.228s1.489-0.535 2.048-1.095 0.94-1.272 1.095-2.048c0.154-0.776 0.075-1.58-0.228-2.311s-0.815-1.356-1.473-1.795-1.431-0.674-2.222-0.674h-20.084c-0.265 0-0.52-0.105-0.707-0.293s-0.293-0.442-0.293-0.707z"></path>
</symbol>
<symbol id="icon-alcove" viewBox="0 0 32 32" fill="inherit" stroke="none">
<path d="M8 4v4h-4v-4h4zM10 28v-4c0-0.53-0.211-1.039-0.586-1.414s-0.884-0.586-1.414-0.586h-4c-0.53 0-1.039 0.211-1.414 0.586s-0.586 0.884-0.586 1.414v4c0 0.53 0.211 1.039 0.586 1.414s0.884 0.586 1.414 0.586h4c0.53 0 1.039-0.211 1.414-0.586s0.586-0.884 0.586-1.414zM10 18v-4c0-0.53-0.211-1.039-0.586-1.414s-0.884-0.586-1.414-0.586h-4c-0.53 0-1.039 0.211-1.414 0.586s-0.586 0.884-0.586 1.414v4c0 0.53 0.211 1.039 0.586 1.414s0.884 0.586 1.414 0.586h4c0.53 0 1.039-0.211 1.414-0.586s0.586-0.884 0.586-1.414zM10 8v-4c0-0.53-0.211-1.039-0.586-1.414s-0.884-0.586-1.414-0.586h-4c-0.53 0-1.039 0.211-1.414 0.586s-0.586 0.884-0.586 1.414v4c0 0.53 0.211 1.039 0.586 1.414s0.884 0.586 1.414 0.586h4c0.53 0 1.039-0.211 1.414-0.586s0.586-0.884 0.586-1.414zM20 28v-4c0-0.53-0.211-1.039-0.586-1.414s-0.884-0.586-1.414-0.586h-4c-0.53 0-1.039 0.211-1.414 0.586s-0.586 0.884-0.586 1.414v4c0 0.53 0.211 1.039 0.586 1.414s0.884 0.586 1.414 0.586h4c0.53 0 1.039-0.211 1.414-0.586s0.586-0.884 0.586-1.414zM20 18v-4c0-0.53-0.211-1.039-0.586-1.414s-0.884-0.586-1.414-0.586h-4c-0.53 0-1.039 0.211-1.414 0.586s-0.586 0.884-0.586 1.414v4c0 0.53 0.211 1.039 0.586 1.414s0.884 0.586 1.414 0.586h4c0.53 0 1.039-0.211 1.414-0.586s0.586-0.884 0.586-1.414zM20 8v-4c0-0.53-0.211-1.039-0.586-1.414s-0.884-0.586-1.414-0.586h-4c-0.53 0-1.039 0.211-1.414 0.586s-0.586 0.884-0.586 1.414v4c0 0.53 0.211 1.039 0.586 1.414s0.884 0.586 1.414 0.586h4c0.53 0 1.039-0.211 1.414-0.586s0.586-0.884 0.586-1.414zM18 4v4h-4v-4h4zM28 4v4h-4v-4h4zM8 14v4h-4v-4h4zM18 14v4h-4v-4h4zM28 14h-4v4h4v-4zM8 24v4h-4v-4h4zM18 24v4h-4v-4h4zM28 24v4h-4v-4h4zM24 2c-0.53 0-1.039 0.211-1.414 0.586s-0.586 0.884-0.586 1.414v4c0 0.53 0.211 1.039 0.586 1.414s0.884 0.586 1.414 0.586h4c0.53 0 1.039-0.211 1.414-0.586s0.586-0.884 0.586-1.414v-4c0-0.53-0.211-1.039-0.586-1.414s-0.884-0.586-1.414-0.586h-4zM22 14c0-0.53 0.211-1.039 0.586-1.414s0.884-0.586 1.414-0.586h4c0.53 0 1.039 0.211 1.414 0.586s0.586 0.884 0.586 1.414v4c0 0.53-0.211 1.039-0.586 1.414s-0.884 0.586-1.414 0.586h-4c-0.53 0-1.039-0.211-1.414-0.586s-0.586-0.884-0.586-1.414v-4zM24 22c-0.53 0-1.039 0.211-1.414 0.586s-0.586 0.884-0.586 1.414v4c0 0.53 0.211 1.039 0.586 1.414s0.884 0.586 1.414 0.586h4c0.53 0 1.039-0.211 1.414-0.586s0.586-0.884 0.586-1.414v-4c0-0.53-0.211-1.039-0.586-1.414s-0.884-0.586-1.414-0.586h-4z"></path>
</symbol>
<symbol id="icon-transmission" viewBox="0 0 32 32" stroke="none" fill="inherit">
<path d="M12 7c0-0.796 0.316-1.559 0.879-2.121s1.326-0.879 2.121-0.879h2c0.796 0 1.559 0.316 2.121 0.879s0.879 1.326 0.879 2.121v2c0 0.796-0.316 1.559-0.879 2.121s-1.326 0.879-2.121 0.879v2h11c0.265 0 0.52 0.105 0.707 0.293s0.293 0.442 0.293 0.707v2c0 0.265-0.105 0.52-0.293 0.707s-0.442 0.293-0.707 0.293c-0.265 0-0.52-0.105-0.707-0.293s-0.293-0.442-0.293-0.707v-1h-10v1c0 0.265-0.105 0.52-0.293 0.707s-0.442 0.293-0.707 0.293c-0.265 0-0.52-0.105-0.707-0.293s-0.293-0.442-0.293-0.707v-1h-10v1c0 0.265-0.105 0.52-0.293 0.707s-0.442 0.293-0.707 0.293c-0.265 0-0.52-0.105-0.707-0.293s-0.293-0.442-0.293-0.707v-2c0-0.265 0.105-0.52 0.293-0.707s0.442-0.293 0.707-0.293h11v-2c-0.796 0-1.559-0.316-2.121-0.879s-0.879-1.326-0.879-2.121v-2zM17 10c0.265 0 0.52-0.105 0.707-0.293s0.293-0.442 0.293-0.707v-2c0-0.265-0.105-0.52-0.293-0.707s-0.442-0.293-0.707-0.293h-2c-0.265 0-0.52 0.105-0.707 0.293s-0.293 0.442-0.293 0.707v2c0 0.265 0.105 0.52 0.293 0.707s0.442 0.293 0.707 0.293h2zM0 23c0-0.796 0.316-1.559 0.879-2.121s1.326-0.879 2.121-0.879h2c0.796 0 1.559 0.316 2.121 0.879s0.879 1.326 0.879 2.121v2c0 0.796-0.316 1.559-0.879 2.121s-1.326 0.879-2.121 0.879h-2c-0.796 0-1.559-0.316-2.121-0.879s-0.879-1.326-0.879-2.121v-2zM3 22c-0.265 0-0.52 0.105-0.707 0.293s-0.293 0.442-0.293 0.707v2c0 0.265 0.105 0.52 0.293 0.707s0.442 0.293 0.707 0.293h2c0.265 0 0.52-0.105 0.707-0.293s0.293-0.442 0.293-0.707v-2c0-0.265-0.105-0.52-0.293-0.707s-0.442-0.293-0.707-0.293h-2zM12 23c0-0.796 0.316-1.559 0.879-2.121s1.326-0.879 2.121-0.879h2c0.796 0 1.559 0.316 2.121 0.879s0.879 1.326 0.879 2.121v2c0 0.796-0.316 1.559-0.879 2.121s-1.326 0.879-2.121 0.879h-2c-0.796 0-1.559-0.316-2.121-0.879s-0.879-1.326-0.879-2.121v-2zM15 22c-0.265 0-0.52 0.105-0.707 0.293s-0.293 0.442-0.293 0.707v2c0 0.265 0.105 0.52 0.293 0.707s0.442 0.293 0.707 0.293h2c0.265 0 0.52-0.105 0.707-0.293s0.293-0.442 0.293-0.707v-2c0-0.265-0.105-0.52-0.293-0.707s-0.442-0.293-0.707-0.293h-2zM24 23c0-0.796 0.316-1.559 0.879-2.121s1.326-0.879 2.121-0.879h2c0.796 0 1.559 0.316 2.121 0.879s0.879 1.326 0.879 2.121v2c0 0.796-0.316 1.559-0.879 2.121s-1.326 0.879-2.121 0.879h-2c-0.796 0-1.559-0.316-2.121-0.879s-0.879-1.326-0.879-2.121v-2zM27 22c-0.265 0-0.52 0.105-0.707 0.293s-0.293 0.442-0.293 0.707v2c0 0.265 0.105 0.52 0.293 0.707s0.442 0.293 0.707 0.293h2c0.265 0 0.52-0.105 0.707-0.293s0.293-0.442 0.293-0.707v-2c0-0.265-0.105-0.52-0.293-0.707s-0.442-0.293-0.707-0.293h-2z"></path>
</symbol>
<symbol id="icon-freezer" viewBox="0 0 32 32" stroke="none" fill="inherit">
<path d="M23.667 9.333c0-0.265-0.105-0.52-0.293-0.707s-0.442-0.293-0.707-0.293c-0.265 0-0.52 0.105-0.707 0.293s-0.293 0.442-0.293 0.707v2.667c0 0.265 0.105 0.52 0.293 0.707s0.442 0.293 0.707 0.293c0.265 0 0.52-0.105 0.707-0.293s0.293-0.442 0.293-0.707v-2.667zM23.667 18.667c0-0.265-0.105-0.52-0.293-0.707s-0.442-0.293-0.707-0.293c-0.265 0-0.52 0.105-0.707 0.293s-0.293 0.442-0.293 0.707v2.667c0 0.265 0.105 0.52 0.293 0.707s0.442 0.293 0.707 0.293c0.265 0 0.52-0.105 0.707-0.293s0.293-0.442 0.293-0.707v-2.667z"></path>
<path d="M16.075 1.667h-0.149c-2.451 0-4.392 0-5.911 0.204-1.563 0.211-2.828 0.653-3.827 1.651-0.997 0.999-1.44 2.264-1.651 3.827-0.204 1.52-0.204 3.46-0.204 5.911v4.149c0 2.451 0 4.392 0.204 5.911 0.211 1.563 0.653 2.828 1.651 3.827 0.613 0.612 1.325 1.015 2.145 1.284v0.904c0 0.552 0.448 1 1 1h1.333c0.265 0 0.52-0.105 0.707-0.293s0.293-0.442 0.293-0.707v-0.395c1.209 0.061 2.62 0.061 4.259 0.061h0.149c1.64 0 3.049 0 4.259-0.061v0.395c0 0.552 0.448 1 1 1h1.333c0.265 0 0.52-0.105 0.707-0.293s0.293-0.442 0.293-0.707v-0.904c0.82-0.269 1.533-0.672 2.145-1.284 0.997-0.999 1.44-2.264 1.651-3.827 0.204-1.52 0.204-3.46 0.204-5.911v-4.148c0-2.451 0-4.392-0.204-5.911-0.211-1.563-0.653-2.828-1.651-3.827-0.999-0.997-2.264-1.44-3.827-1.651-1.52-0.204-3.46-0.204-5.911-0.204zM7.603 4.936c0.564-0.564 1.337-0.903 2.679-1.083 1.371-0.184 3.176-0.187 5.719-0.187s4.349 0.003 5.72 0.187c1.34 0.18 2.113 0.519 2.677 1.083s0.903 1.337 1.083 2.679c0.184 1.371 0.187 3.176 0.187 5.719v1h-19.333v-1c0-2.543 0.003-4.348 0.187-5.72 0.18-1.34 0.519-2.113 1.083-2.677zM6.333 16.333h19.333v1c0 2.543-0.003 4.349-0.187 5.72-0.18 1.34-0.519 2.113-1.083 2.677s-1.337 0.903-2.679 1.083c-1.371 0.184-3.176 0.187-5.719 0.187s-4.348-0.003-5.72-0.187c-1.34-0.18-2.113-0.519-2.677-1.083s-0.903-1.337-1.083-2.679c-0.184-1.369-0.187-3.176-0.187-5.719v-1z"></path>
</symbol>
<symbol id="icon-engine" viewBox="0 0 32 32" stroke="none" fill="inherit" >
<path d="M6 5c0-0.265 0.105-0.52 0.293-0.707s0.442-0.293 0.707-0.293h10c0.265 0 0.52 0.105 0.707 0.293s0.293 0.442 0.293 0.707v10c0 0.265-0.105 0.52-0.293 0.707s-0.442 0.293-0.707 0.293h-10c-0.265 0-0.52-0.105-0.707-0.293s-0.293-0.442-0.293-0.707v-10z"></path>
<path d="M2 4c0-1.061 0.421-2.078 1.172-2.828s1.768-1.172 2.828-1.172h12c1.061 0 2.078 0.421 2.828 1.172s1.172 1.768 1.172 2.828v16c1.061 0 2.078 0.421 2.828 1.172s1.172 1.768 1.172 2.828v1c0 0.265 0.105 0.52 0.293 0.707s0.442 0.293 0.707 0.293 0.52-0.105 0.707-0.293c0.188-0.188 0.293-0.442 0.293-0.707v-9h-1c-0.265 0-0.52-0.105-0.707-0.293s-0.293-0.442-0.293-0.707v-6.25c0-0.265 0.105-0.52 0.293-0.707s0.442-0.293 0.707-0.293h2.99c-0.022-0.952-0.106-1.788-0.402-2.444-0.158-0.381-0.435-0.702-0.788-0.916-0.368-0.22-0.928-0.39-1.8-0.39-0.265 0-0.52-0.105-0.707-0.293s-0.293-0.442-0.293-0.707 0.105-0.52 0.293-0.707c0.188-0.188 0.442-0.293 0.707-0.293 1.128-0.003 2.069 0.221 2.824 0.672 0.766 0.456 1.268 1.102 1.588 1.814 0.59 1.31 0.588 2.93 0.588 4.162v6.35c0 0.132-0.025 0.262-0.076 0.383s-0.124 0.232-0.217 0.325c-0.093 0.093-0.203 0.167-0.325 0.217s-0.252 0.076-0.383 0.076h-1v9c0 0.796-0.316 1.559-0.879 2.121s-1.326 0.879-2.121 0.879-1.559-0.316-2.121-0.879c-0.563-0.563-0.879-1.326-0.879-2.121v-1c0-0.53-0.211-1.039-0.586-1.414s-0.884-0.586-1.414-0.586v8h1c0.265 0 0.52 0.105 0.707 0.293s0.293 0.442 0.293 0.707-0.105 0.52-0.293 0.707c-0.188 0.188-0.442 0.293-0.707 0.293h-22c-0.265 0-0.52-0.105-0.707-0.293s-0.293-0.442-0.293-0.707 0.105-0.52 0.293-0.707c0.188-0.188 0.442-0.293 0.707-0.293h1v-26zM20 4c0-0.53-0.211-1.039-0.586-1.414s-0.884-0.586-1.414-0.586h-12c-0.53 0-1.039 0.211-1.414 0.586s-0.586 0.884-0.586 1.414v26h16v-26z"></path>
</symbol>
<symbol id="icon-fully-integrated" viewBox="0 0 32 32" fill="inherit">
<path d="M2 5c0-0.796 0.316-1.559 0.879-2.121s1.326-0.879 2.121-0.879h6c0.796 0 1.559 0.316 2.121 0.879s0.879 1.326 0.879 2.121v6c0 0.796-0.316 1.559-0.879 2.121s-1.326 0.879-2.121 0.879h-6c-0.796 0-1.559-0.316-2.121-0.879s-0.879-1.326-0.879-2.121v-6zM5 4c-0.265 0-0.52 0.105-0.707 0.293s-0.293 0.442-0.293 0.707v6c0 0.265 0.105 0.52 0.293 0.707s0.442 0.293 0.707 0.293h6c0.265 0 0.52-0.105 0.707-0.293s0.293-0.442 0.293-0.707v-6c0-0.265-0.105-0.52-0.293-0.707s-0.442-0.293-0.707-0.293h-6zM18 5c0-0.796 0.316-1.559 0.879-2.121s1.326-0.879 2.121-0.879h6c0.796 0 1.559 0.316 2.121 0.879s0.879 1.326 0.879 2.121v6c0 0.796-0.316 1.559-0.879 2.121s-1.326 0.879-2.121 0.879h-6c-0.796 0-1.559-0.316-2.121-0.879s-0.879-1.326-0.879-2.121v-6zM21 4c-0.265 0-0.52 0.105-0.707 0.293s-0.293 0.442-0.293 0.707v6c0 0.265 0.105 0.52 0.293 0.707s0.442 0.293 0.707 0.293h6c0.265 0 0.52-0.105 0.707-0.293s0.293-0.442 0.293-0.707v-6c0-0.265-0.105-0.52-0.293-0.707s-0.442-0.293-0.707-0.293h-6zM2 21c0-0.796 0.316-1.559 0.879-2.121s1.326-0.879 2.121-0.879h6c0.796 0 1.559 0.316 2.121 0.879s0.879 1.326 0.879 2.121v6c0 0.796-0.316 1.559-0.879 2.121s-1.326 0.879-2.121 0.879h-6c-0.796 0-1.559-0.316-2.121-0.879s-0.879-1.326-0.879-2.121v-6zM5 20c-0.265 0-0.52 0.105-0.707 0.293s-0.293 0.442-0.293 0.707v6c0 0.265 0.105 0.52 0.293 0.707s0.442 0.293 0.707 0.293h6c0.265 0 0.52-0.105 0.707-0.293s0.293-0.442 0.293-0.707v-6c0-0.265-0.105-0.52-0.293-0.707s-0.442-0.293-0.707-0.293h-6zM18 21c0-0.796 0.316-1.559 0.879-2.121s1.326-0.879 2.121-0.879h6c0.796 0 1.559 0.316 2.121 0.879s0.879 1.326 0.879 2.121v6c0 0.796-0.316 1.559-0.879 2.121s-1.326 0.879-2.121 0.879h-6c-0.796 0-1.559-0.316-2.121-0.879s-0.879-1.326-0.879-2.121v-6zM21 20c-0.265 0-0.52 0.105-0.707 0.293s-0.293 0.442-0.293 0.707v6c0 0.265 0.105 0.52 0.293 0.707s0.442 0.293 0.707 0.293h6c0.265 0 0.52-0.105 0.707-0.293s0.293-0.442 0.293-0.707v-6c0-0.265-0.105-0.52-0.293-0.707s-0.442-0.293-0.707-0.293h-6z"></path>
</symbol>
<symbol id="icon-gas" viewBox="0 0 32 32" fill="inherit" stroke="none">
<path d="M24 30.5h-16c-5.1 0-6.5-1.5-6.5-6.5v-16c0-5.1 1.5-6.5 6.5-6.5h16c5.1 0 6.5 1.5 6.5 6.5v16c0 5.1-1.4 6.5-6.5 6.5zM8 3.9c-3.7 0-4.1 0.4-4.1 4.1v16c0 3.7 0.4 4.1 4.1 4.1h16c3.7 0 4.1-0.4 4.1-4.1v-16c0-3.7-0.4-4.1-4.1-4.1h-16zM24 26.5c-0.7 0-1.2-0.5-1.2-1.2v0c0-0.7 0.5-1.2 1.2-1.2s1.2 0.5 1.2 1.2-0.5 1.2-1.2 1.2zM13.3 26.5h-5.3c-0.7 0-1.2-0.5-1.2-1.2s0.5-1.2 1.2-1.2h5.3c0.7 0 1.2 0.5 1.2 1.2s-0.5 1.2-1.2 1.2z"></path>
<path d="M16 21.2c-0.7 0-1.2-0.5-1.2-1.2v-0.2c-2.6-0.5-4.7-2.6-5.2-5.2h-0.3c-0.7 0-1.2-0.5-1.2-1.2s0.5-1.2 1.2-1.2h0.2c0.5-2.6 2.6-4.7 5.2-5.2v-0.3c0-0.7 0.5-1.2 1.2-1.2s1.2 0.5 1.2 1.2v0.2c2.6 0.5 4.7 2.6 5.2 5.2h0.2c0.7 0 1.2 0.5 1.2 1.2s-0.5 1.2-1.2 1.2h-0.2c-0.5 2.6-2.6 4.7-5.2 5.2v0.3c0.1 0.7-0.4 1.2-1.1 1.2zM16 16.8c0.4 0 0.8 0.2 1 0.5 1.5-0.4 2.6-1.5 3-3-0.3-0.2-0.5-0.6-0.5-1s0.2-0.8 0.5-1c-0.4-1.5-1.5-2.6-3-3-0.2 0.3-0.6 0.5-1 0.5s-0.8-0.2-1-0.5c-1.5 0.4-2.6 1.5-3 3 0.3 0.2 0.5 0.6 0.5 1s-0.2 0.8-0.5 1c0.4 1.5 1.5 2.6 3 3 0.2-0.3 0.6-0.5 1-0.5z"></path>
</symbol>
<symbol  id="icon-heart-default" viewBox="0 0 24 24" fill="none" xmlns="http://www.w3.org/2000/svg">
<path  stroke="inherit" stroke-width="2.3" stroke-linecap="round" stroke-linejoin="round" d="M20.8401 4.60999C20.3294 4.099 19.7229 3.69364 19.0555 3.41708C18.388 3.14052 17.6726 2.99817 16.9501 2.99817C16.2276 2.99817 15.5122 3.14052 14.8448 3.41708C14.1773 3.69364 13.5709 4.099 13.0601 4.60999L12.0001 5.66999L10.9401 4.60999C9.90842 3.5783 8.50915 2.9987 7.05012 2.9987C5.59108 2.9987 4.19181 3.5783 3.16012 4.60999C2.12843 5.64169 1.54883 7.04096 1.54883 8.49999C1.54883 9.95903 2.12843 11.3583 3.16012 12.39L4.22012 13.45L12.0001 21.23L19.7801 13.45L20.8401 12.39C21.3511 11.8792 21.7565 11.2728 22.033 10.6053C22.3096 9.93789 22.4519 9.22248 22.4519 8.49999C22.4519 7.77751 22.3096 7.0621 22.033 6.39464C21.7565 5.72718 21.3511 5.12075 20.8401 4.60999Z"/>
</symbol>
<symbol id="icon-kitchen" viewBox="0 0 33 32" stroke="none"  fill="inherit">
<path d="M1.5 12c-0.15 0-0.297 0.034-0.432 0.098s-0.254 0.159-0.347 0.276c-0.094 0.117-0.16 0.253-0.194 0.399s-0.035 0.297-0.003 0.443l3.304 14.868c0.247 1.11 0.865 2.104 1.752 2.816s1.991 1.1 3.128 1.1h11.584c1.138-0 2.241-0.388 3.128-1.1s1.505-1.705 1.752-2.816l0.262-1.18c1.53 0.286 3.111-0.033 4.41-0.891s2.213-2.186 2.551-3.706c0.337-1.519 0.071-3.11-0.742-4.437s-2.111-2.285-3.618-2.674l0.442-1.98c0.032-0.146 0.031-0.298-0.003-0.443s-0.1-0.282-0.194-0.399c-0.094-0.117-0.212-0.211-0.347-0.276s-0.283-0.098-0.432-0.098h-26zM26.5 25c-0.212 0-0.423-0.017-0.632-0.050l1.734-7.796c0.925 0.268 1.722 0.86 2.246 1.669s0.738 1.778 0.604 2.732c-0.134 0.954-0.607 1.827-1.333 2.46s-1.656 0.983-2.619 0.985zM5.78 27.65l-3.034-13.65h23.508l-3.034 13.65c-0.148 0.666-0.519 1.262-1.051 1.69s-1.194 0.66-1.877 0.66h-11.584c-0.683-0-1.345-0.233-1.877-0.66s-0.903-1.023-1.051-1.69z"></path>
<path d="M9.3 1.6l-0.006 0.008-0.028 0.038c-0.146 0.2-0.282 0.407-0.408 0.62-0.107 0.171-0.202 0.349-0.282 0.534-0.052 0.12-0.068 0.184-0.074 0.206v0.008c0.023 0.177 0.085 0.346 0.182 0.496 0.15 0.266 0.356 0.544 0.616 0.89l0.020 0.024c0.236 0.316 0.52 0.694 0.74 1.086 0.224 0.4 0.44 0.91 0.44 1.49 0 0.376-0.13 0.736-0.238 0.988-0.116 0.268-0.251 0.527-0.404 0.776-0.157 0.262-0.326 0.517-0.506 0.764l-0.036 0.050-0.010 0.016-0.004 0.004c-0.159 0.212-0.396 0.353-0.658 0.391s-0.529-0.030-0.742-0.189-0.353-0.396-0.391-0.658c-0.038-0.263 0.030-0.529 0.189-0.742l0.006-0.008 0.028-0.038c0.146-0.2 0.282-0.407 0.408-0.62 0.107-0.171 0.202-0.349 0.282-0.534 0.052-0.12 0.068-0.184 0.074-0.206-0.021-0.179-0.083-0.352-0.18-0.504-0.186-0.31-0.392-0.608-0.618-0.89l-0.020-0.024c-0.27-0.345-0.517-0.708-0.74-1.086-0.272-0.451-0.424-0.964-0.44-1.49 0-0.376 0.13-0.736 0.238-0.988 0.118-0.276 0.268-0.548 0.404-0.776 0.159-0.261 0.328-0.516 0.506-0.764l0.050-0.070c0.159-0.212 0.396-0.353 0.658-0.391s0.529 0.030 0.742 0.189c0.212 0.159 0.353 0.396 0.391 0.658s-0.030 0.529-0.189 0.742zM15.3 1.6l-0.006 0.008-0.028 0.038c-0.146 0.2-0.282 0.407-0.408 0.62-0.107 0.171-0.202 0.349-0.282 0.534-0.052 0.12-0.068 0.184-0.074 0.206v0.008c0.023 0.177 0.085 0.346 0.182 0.496 0.15 0.266 0.356 0.544 0.616 0.89l0.020 0.024c0.236 0.316 0.52 0.694 0.74 1.086 0.224 0.4 0.44 0.91 0.44 1.49 0 0.376-0.13 0.736-0.238 0.988-0.116 0.268-0.251 0.527-0.404 0.776-0.157 0.262-0.326 0.517-0.506 0.764l-0.036 0.050-0.010 0.016-0.004 0.004c-0.159 0.212-0.396 0.353-0.658 0.391s-0.529-0.030-0.742-0.189-0.353-0.396-0.391-0.658c-0.038-0.263 0.030-0.529 0.189-0.742l0.006-0.008 0.028-0.038c0.146-0.2 0.282-0.407 0.408-0.62 0.107-0.171 0.202-0.349 0.282-0.534 0.052-0.12 0.068-0.184 0.074-0.206-0.021-0.179-0.083-0.352-0.18-0.504-0.186-0.31-0.392-0.608-0.618-0.89l-0.020-0.024c-0.27-0.345-0.517-0.708-0.74-1.086-0.272-0.451-0.424-0.964-0.44-1.49 0-0.376 0.13-0.736 0.238-0.988 0.118-0.276 0.268-0.548 0.404-0.776 0.159-0.261 0.328-0.516 0.506-0.764l0.050-0.070c0.159-0.212 0.396-0.353 0.658-0.391s0.529 0.030 0.742 0.189 0.353 0.396 0.391 0.658c0.038 0.263-0.030 0.529-0.189 0.742zM21.3 1.6l-0.006 0.008-0.028 0.038c-0.145 0.2-0.282 0.407-0.408 0.62-0.107 0.171-0.202 0.349-0.282 0.534-0.052 0.12-0.068 0.184-0.074 0.206v0.008c0.023 0.177 0.085 0.346 0.182 0.496 0.15 0.266 0.356 0.544 0.616 0.89l0.020 0.024c0.236 0.316 0.52 0.694 0.74 1.086 0.224 0.4 0.44 0.91 0.44 1.49 0 0.376-0.13 0.736-0.238 0.988-0.116 0.268-0.251 0.527-0.404 0.776-0.156 0.262-0.324 0.517-0.504 0.764l-0.038 0.050-0.010 0.016-0.004 0.004c-0.159 0.212-0.396 0.353-0.658 0.391s-0.529-0.030-0.742-0.189-0.353-0.396-0.391-0.658c-0.038-0.263 0.030-0.529 0.189-0.742l0.006-0.008 0.028-0.038c0.145-0.2 0.282-0.407 0.408-0.62 0.107-0.171 0.202-0.349 0.282-0.534 0.052-0.12 0.068-0.184 0.074-0.206-0.021-0.179-0.083-0.352-0.18-0.504-0.186-0.31-0.392-0.608-0.618-0.89l-0.020-0.024c-0.27-0.345-0.517-0.708-0.74-1.086-0.272-0.451-0.424-0.964-0.44-1.49 0-0.376 0.13-0.736 0.238-0.988 0.118-0.276 0.268-0.548 0.404-0.776 0.159-0.261 0.328-0.516 0.506-0.764l0.050-0.070c0.159-0.212 0.396-0.353 0.658-0.391s0.529 0.030 0.742 0.189 0.353 0.396 0.391 0.658c0.038 0.263-0.030 0.529-0.189 0.742z"></path>
</symbol>
<symbol id="icon-map" viewBox="0 0 32 32" stroke="inherit"  fill="inherit">
<path fill="#6c717b" d="M31.634 0.226c0.115 0.094 0.207 0.212 0.27 0.346s0.096 0.28 0.096 0.428v28c-0 0.231-0.080 0.455-0.227 0.634s-0.351 0.301-0.577 0.346l-10 2c-0.129 0.026-0.263 0.026-0.392 0l-9.804-1.96-9.804 1.96c-0.145 0.029-0.295 0.025-0.438-0.010s-0.277-0.103-0.392-0.197c-0.114-0.094-0.207-0.212-0.27-0.345s-0.096-0.28-0.096-0.428v-28c0-0.231 0.080-0.455 0.227-0.634s0.351-0.301 0.577-0.346l10-2c0.129-0.026 0.263-0.026 0.392 0l9.804 1.96 9.804-1.96c0.145-0.029 0.295-0.026 0.438 0.010s0.277 0.103 0.392 0.196zM20 3.82l-8-1.6v25.96l8 1.6v-25.96zM22 29.78l8-1.6v-25.96l-8 1.6v25.96zM10 28.18v-25.96l-8 1.6v25.96l8-1.6z"></path>
</symbol>

<symbol width="32" height="32" id="icon-microwave" viewBox="0 0 32 32" fill="inherit" stroke="none">
<path d="M26.72 26.4h-21.44c-2.080 0-3.68-1.6-3.68-3.68v-14.72c0-2.080 1.6-3.68 3.68-3.68h21.28c2.080 0 3.68 1.6 3.68 3.68v14.72c0.16 1.92-1.6 3.68-3.52 3.68zM5.28 6.4c-0.96 0-1.6 0.8-1.6 1.6v14.72c0 0.96 0.8 1.6 1.6 1.6h21.28c0.96 0 1.6-0.8 1.6-1.6v-14.72c0-0.96-0.8-1.6-1.6-1.6h-21.28z"></path>
<path d="M17.28 20.96h-8c-1.28 0-2.4-1.12-2.4-2.4v-6.56c0.16-1.28 1.12-2.4 2.4-2.4h8c1.28 0 2.4 1.12 2.4 2.4v6.72c0 1.28-1.12 2.24-2.4 2.24zM9.28 11.68c-0.16 0-0.32 0.16-0.32 0.32v6.72c0 0.16 0.16 0.32 0.32 0.32h8c0.16 0 0.32-0.16 0.32-0.32v-6.72c0-0.16-0.16-0.32-0.32-0.32h-8z"></path>
<path d="M24 28.96c-0.48 0-0.96-0.48-0.96-0.96v-2.72c0-0.48 0.48-0.96 0.96-0.96s0.96 0.48 0.96 0.96v2.72c0 0.48-0.48 0.96-0.96 0.96zM8 28.96c-0.48 0-0.96-0.48-0.96-0.96v-2.72c0-0.48 0.48-0.96 0.96-0.96s0.96 0.48 0.96 0.96v2.72c0 0.48-0.48 0.96-0.96 0.96zM24 20.96c-0.48 0-0.96-0.48-0.96-0.96v-9.28c0-0.64 0.48-1.12 0.96-1.12s0.96 0.48 0.96 0.96v9.28c0 0.64-0.48 1.12-0.96 1.12z"></path>
</symbol>
<symbol id="icon-route" viewBox="0 0 32 32">
<path fill="inherit" d="M6.667 4c-0.019-0.001-0.042-0.001-0.065-0.001-1.473 0-2.667 1.194-2.667 2.667s1.194 2.667 2.667 2.667c0.023 0 0.046-0 0.069-0.001l-0.003 0c1.445-0.037 2.602-1.216 2.602-2.666s-1.157-2.63-2.598-2.666l-0.003-0zM1.333 6.667c0-2.946 2.388-5.334 5.334-5.334s5.334 2.388 5.334 5.334v0c0 2.946-2.388 5.334-5.334 5.334s-5.334-2.388-5.334-5.334v0zM25.333 22.667c-0.019-0-0.042-0.001-0.065-0.001-1.473 0-2.667 1.194-2.667 2.667s1.194 2.667 2.667 2.667c0.023 0 0.046-0 0.069-0.001l-0.003 0c1.445-0.037 2.602-1.216 2.602-2.666s-1.157-2.63-2.599-2.666l-0.003-0zM20 25.333c0-2.946 2.388-5.334 5.334-5.334s5.334 2.388 5.334 5.334v0c0 2.946-2.388 5.334-5.334 5.334s-5.334-2.388-5.334-5.334v0z"></path>
<path fill="inherit" d="M13.333 6.667c0-0.736 0.597-1.334 1.334-1.334h8.4c4.13 0 5.619 5.405 1.987 7.429l-15.472 8.805c-0.407 0.224-0.678 0.65-0.678 1.139 0 0.716 0.58 1.296 1.296 1.296 0.023 0 0.046-0.001 0.069-0.002l-0.003 0h7.066c0.737 0 1.334 0.597 1.334 1.334s-0.597 1.334-1.334 1.334v0h-7.064c-4.131 0-5.619-5.405-1.987-7.429l15.472-8.805c0.407-0.224 0.678-0.65 0.678-1.139 0-0.716-0.58-1.296-1.296-1.296-0.024 0-0.047 0.001-0.070 0.002l0.003-0h-8.4c-0 0-0.001 0-0.002 0-0.736 0-1.333-0.597-1.333-1.333v0z"></path>
</symbol>
<symbol id="icon-bathroom" viewBox="0 0 32 32" stroke="none" fill="inherit">
<path d="M8 29.5c0 0.297-0.088 0.587-0.253 0.833s-0.399 0.439-0.673 0.552-0.576 0.143-0.867 0.085c-0.291-0.058-0.558-0.201-0.768-0.41s-0.353-0.477-0.411-0.768c-0.058-0.291-0.028-0.593 0.085-0.867s0.306-0.508 0.552-0.673c0.247-0.165 0.537-0.253 0.833-0.253 0.398 0 0.779 0.158 1.061 0.439s0.439 0.663 0.439 1.061zM10.5 24c-0.297 0-0.587 0.088-0.833 0.253s-0.439 0.399-0.552 0.673c-0.114 0.274-0.143 0.576-0.085 0.867s0.201 0.558 0.411 0.768c0.21 0.21 0.477 0.353 0.768 0.41s0.592 0.028 0.867-0.085 0.508-0.306 0.673-0.552c0.165-0.247 0.253-0.537 0.253-0.833 0-0.398-0.158-0.779-0.439-1.061s-0.663-0.439-1.061-0.439zM2.5 24c-0.297 0-0.587 0.088-0.833 0.253s-0.439 0.399-0.552 0.673c-0.114 0.274-0.143 0.576-0.085 0.867s0.201 0.558 0.411 0.768c0.21 0.21 0.477 0.353 0.768 0.41s0.593 0.028 0.867-0.085c0.274-0.113 0.508-0.306 0.673-0.552s0.253-0.537 0.253-0.833c0-0.398-0.158-0.779-0.439-1.061s-0.663-0.439-1.061-0.439zM6.5 20c-0.297 0-0.587 0.088-0.833 0.253s-0.439 0.399-0.552 0.673c-0.114 0.274-0.143 0.576-0.085 0.867s0.201 0.558 0.411 0.768c0.21 0.21 0.477 0.353 0.768 0.41s0.593 0.028 0.867-0.085c0.274-0.113 0.508-0.306 0.673-0.552s0.253-0.537 0.253-0.833c0-0.398-0.158-0.779-0.439-1.061s-0.663-0.439-1.061-0.439zM32 5c0 0.265-0.105 0.52-0.293 0.707s-0.442 0.293-0.707 0.293h-3.586l-3.481 3.482-2.707 15.849c-0.061 0.362-0.22 0.701-0.461 0.978s-0.553 0.483-0.902 0.595c-0.35 0.112-0.724 0.125-1.080 0.039s-0.683-0.27-0.943-0.529l-12.25-12.25c-0.26-0.26-0.443-0.586-0.53-0.944s-0.073-0.732 0.039-1.082c0.112-0.35 0.319-0.662 0.597-0.903s0.617-0.399 0.98-0.46l15.842-2.709 3.775-3.775c0.093-0.093 0.203-0.166 0.325-0.217s0.252-0.076 0.383-0.076h4c0.265 0 0.52 0.105 0.707 0.293s0.293 0.442 0.293 0.707zM21.776 10.224l-14.776 2.526 12.25 12.25 2.526-14.776z"></path>
</symbol>
<symbol id="icon-radio" viewBox="0 0 32 32" fill="inherit" stroke="none">
<path d="M14.080 4.96c0-0.32 0.16-0.48 0.32-0.64s0.48-0.32 0.64-0.32h14.080c0.32 0 0.48 0.16 0.64 0.32s0.32 0.48 0.32 0.64v1.92c0 0.32-0.16 0.48-0.32 0.64-0.32 0.32-0.48 0.48-0.8 0.48h-13.92c-0.32 0-0.48-0.16-0.8-0.32-0.16-0.16-0.16-0.48-0.16-0.64v-2.080zM0 24c0-1.6 0.64-3.040 1.76-4.32 1.12-1.12 2.72-1.76 4.32-1.76s3.040 0.64 4.32 1.76c0.96 1.28 1.6 2.72 1.6 4.32s-0.64 3.040-1.76 4.32c-1.12 1.12-2.72 1.76-4.32 1.76s-3.040-0.64-4.32-1.76c-0.96-1.28-1.6-2.72-1.6-4.32zM14.080 20.96c0-0.32 0.16-0.48 0.32-0.64s0.48-0.32 0.64-0.32h14.080c0.32 0 0.48 0.16 0.64 0.32s0.32 0.48 0.32 0.64v1.92c0 0.32-0.16 0.48-0.32 0.64s-0.48 0.32-0.64 0.32h-14.080c-0.32 0-0.48-0.16-0.64-0.32s-0.32-0.48-0.32-0.64v-1.92zM14.080 11.040c0-0.32 0.16-0.48 0.32-0.64s0.48-0.32 0.64-0.32h9.92c0.32 0 0.48 0.16 0.64 0.32s0.32 0.48 0.32 0.64-0.16 0.48-0.32 0.64c-0.16 0.16-0.48 0.32-0.64 0.32h-9.92c-0.32 0-0.48-0.16-0.64-0.32-0.32-0.16-0.32-0.48-0.32-0.64zM14.080 27.040c0-0.32 0.16-0.48 0.32-0.64s0.48-0.32 0.64-0.32h9.92c0.32 0 0.48 0.16 0.64 0.32s0.32 0.48 0.32 0.64-0.16 0.48-0.32 0.64c-0.16 0.16-0.48 0.32-0.64 0.32h-9.92c-0.32 0-0.48-0.16-0.64-0.32-0.32-0.16-0.32-0.48-0.32-0.64zM6.080 1.92c-0.8 0-1.6 0.16-2.24 0.48-0.8 0.32-1.6 0.8-2.080 1.28s-0.96 1.28-1.28 2.080c-0.32 0.64-0.48 1.44-0.48 2.24s0.16 1.6 0.48 2.24c0.32 0.8 0.8 1.44 1.28 1.92s1.28 0.96 1.92 1.28c0.8 0.32 1.44 0.48 2.24 0.48 1.6 0 3.040-0.64 4.32-1.76s1.76-2.56 1.76-4.16-0.64-3.040-1.76-4.32-2.72-1.76-4.16-1.76zM6.080 11.040c-0.8 0-1.6-0.32-2.080-0.8-0.64-0.64-0.96-1.44-0.96-2.24s0.32-1.6 0.8-2.080c0.64-0.64 1.28-0.8 2.080-0.8s1.6 0.32 2.080 0.8c0.64 0.48 0.96 1.28 0.96 2.080s-0.32 1.6-0.8 2.080c-0.64 0.64-1.44 0.96-2.080 0.96z"></path>
</symbol>
<symbol id="icon-star" viewBox="0 0 32 32">
<path fill="inherit" stroke="inherit" stroke-linejoin="miter" stroke-linecap="butt" stroke-miterlimit="4" stroke-width="2.4" d="M12.4 9.394l3.6-6.822 3.6 6.822c0.318 0.604 0.9 1.024 1.57 1.14l7.6 1.316-5.376 5.532c-0.385 0.396-0.622 0.937-0.622 1.533 0 0.11 0.008 0.219 0.024 0.325l-0.001-0.012 1.1 7.636-6.924-3.404c-0.283-0.142-0.617-0.225-0.97-0.225s-0.687 0.083-0.983 0.231l0.013-0.006-6.924 3.404 1.1-7.636c0.014-0.094 0.022-0.202 0.022-0.313 0-0.596-0.237-1.138-0.623-1.534l0.001 0-5.378-5.532 7.6-1.314c0.687-0.122 1.254-0.547 1.566-1.13l0.006-0.012z"></path>
</symbol>
<symbol id="icon-tv" viewBox="0 0 32 32" stroke="none" fill="inherit">
<path d="M0 8c0 0 0-4 4-4h24c0 0 4 0 4 4v12c0 0 0 4-4 4h-8c0 1.333 0.167 2.333 0.5 3h1.5c0.265 0 0.52 0.105 0.707 0.293s0.293 0.442 0.293 0.707c0 0.265-0.105 0.52-0.293 0.707s-0.442 0.293-0.707 0.293h-12c-0.265 0-0.52-0.105-0.707-0.293s-0.293-0.442-0.293-0.707c0-0.265 0.105-0.52 0.293-0.707s0.442-0.293 0.707-0.293h1.5c0.333-0.667 0.5-1.667 0.5-3h-8c0 0-4 0-4-4v-12zM2.796 6.29c-0.22 0.153-0.395 0.361-0.508 0.604-0.168 0.353-0.266 0.735-0.288 1.126v11.98c0 0.65 0.156 1.004 0.29 1.204 0.14 0.208 0.341 0.377 0.604 0.508 0.338 0.162 0.703 0.259 1.076 0.286l0.050 0.002h23.98c0.65 0 1.004-0.156 1.204-0.29 0.22-0.153 0.395-0.361 0.508-0.604 0.162-0.338 0.259-0.703 0.286-1.076l0.002-0.050v-11.98c0-0.65-0.156-1.004-0.29-1.204-0.153-0.22-0.361-0.395-0.604-0.508-0.353-0.168-0.736-0.266-1.126-0.288h-23.98c-0.65 0-1.004 0.156-1.204 0.29z"></path>
</symbol>
<symbol id="icon-van" viewBox="0 0 32 32" fill="inherit" stroke="none">
<path d="M12 2h-10v28h10v-28zM30 2h-10v10h10v-10zM30 20v10h-10v-10h10zM0 2c0-0.53 0.211-1.039 0.586-1.414s0.884-0.586 1.414-0.586h10c0.53 0 1.039 0.211 1.414 0.586s0.586 0.884 0.586 1.414v28c0 0.53-0.211 1.039-0.586 1.414s-0.884 0.586-1.414 0.586h-10c-0.53 0-1.039-0.211-1.414-0.586s-0.586-0.884-0.586-1.414v-28zM18 2c0-0.53 0.211-1.039 0.586-1.414s0.884-0.586 1.414-0.586h10c0.53 0 1.039 0.211 1.414 0.586s0.586 0.884 0.586 1.414v10c0 0.53-0.211 1.039-0.586 1.414s-0.884 0.586-1.414 0.586h-10c-0.53 0-1.039-0.211-1.414-0.586s-0.586-0.884-0.586-1.414v-10zM20 18c-0.53 0-1.039 0.211-1.414 0.586s-0.586 0.884-0.586 1.414v10c0 0.53 0.211 1.039 0.586 1.414s0.884 0.586 1.414 0.586h10c0.53 0 1.039-0.211 1.414-0.586s0.586-0.884 0.586-1.414v-10c0-0.53-0.211-1.039-0.586-1.414s-0.884-0.586-1.414-0.586h-10z"></path>
</symbol>
<symbol id="icon-water" viewBox="0 0 32 32" fill="inherit" stroke="none">
<path d="M16 30c-6.080 0-10-3.92-10-10s6.64-14.512 8.672-16.896c0.16-0.192 0.368-0.352 0.592-0.448 0.464-0.208 1.008-0.208 1.456 0 0.24 0.112 0.432 0.256 0.608 0.448 2.032 2.368 8.672 10.624 8.672 16.896s-3.92 10-10 10zM16 4.64c-2.112 2.496-8 9.968-8 15.36 0 4.928 3.072 8 8 8s8-3.072 8-8c0-5.408-5.888-12.864-8-15.36z"></path>
<path d="M16.992 26c-0.56 0-0.992-0.448-0.992-0.992s0.448-0.992 0.992-0.992c0.928 0 1.808-0.368 2.48-1.024 0.656-0.656 1.024-1.536 1.024-2.48 0-0.544 0.448-0.992 0.992-0.992s0.992 0.448 0.992 0.992c0 1.472-0.576 2.848-1.616 3.888s-2.416 1.616-3.888 1.616z"></path>
</symbol>
<symbol id="icon-logo" viewBox="0 0 272 32">
<path fill="#475467" style="fill: var(--color1, #475467)" d="M270.786 14.375h-7.216c-0.038-0.445-0.194-0.829-0.47-1.151-0.274-0.322-0.63-0.568-1.064-0.739-0.428-0.18-0.9-0.27-1.422-0.27-0.672 0-1.25 0.123-1.732 0.369-0.484 0.246-0.72 0.597-0.71 1.051-0.010 0.322 0.128 0.62 0.412 0.895 0.292 0.275 0.856 0.488 1.69 0.639l4.432 0.795c2.234 0.407 3.896 1.094 4.986 2.060 1.098 0.956 1.652 2.24 1.662 3.849-0.010 1.553-0.474 2.902-1.392 4.048-0.91 1.136-2.156 2.017-3.736 2.642-1.572 0.615-3.368 0.923-5.384 0.923-3.334 0-5.942-0.682-7.826-2.045-1.876-1.364-2.922-3.163-3.14-5.398h7.784c0.104 0.691 0.446 1.226 1.022 1.605 0.588 0.369 1.326 0.554 2.216 0.554 0.72 0 1.312-0.123 1.776-0.369 0.474-0.246 0.716-0.597 0.724-1.051-0.008-0.417-0.218-0.748-0.624-0.994-0.398-0.246-1.024-0.445-1.876-0.597l-3.862-0.682c-2.226-0.388-3.892-1.127-5-2.216s-1.658-2.491-1.648-4.205c-0.010-1.515 0.388-2.798 1.192-3.849 0.814-1.061 1.974-1.866 3.48-2.415 1.516-0.559 3.31-0.838 5.384-0.838 3.154 0 5.64 0.653 7.458 1.96 1.828 1.307 2.788 3.116 2.884 5.426z"></path>
<path fill="#475467" style="fill: var(--color1, #475467)" d="M232.83 23.92l0.056-9.318h1.024l5.284-7.33h8.806l-8.864 11.42h-2.216l-4.090 5.227zM225.784 29.091v-29.091h7.842v29.091h-7.842zM239.25 29.091l-5-8.636 5.114-5.568 8.864 14.205h-8.978z"></path>
<path fill="#475467" style="fill: var(--color1, #475467)" d="M211.238 29.489c-2.368 0-4.394-0.469-6.080-1.406-1.686-0.947-2.978-2.263-3.878-3.949-0.9-1.695-1.349-3.66-1.349-5.895s0.449-4.195 1.349-5.881c0.9-1.695 2.192-3.011 3.878-3.949 1.686-0.947 3.712-1.42 6.080-1.42 2.14 0 3.99 0.388 5.554 1.165 1.572 0.767 2.788 1.856 3.65 3.267 0.862 1.402 1.298 3.049 1.306 4.943h-7.272c-0.104-1.146-0.436-2.017-0.994-2.614-0.55-0.606-1.26-0.909-2.13-0.909-0.682 0-1.28 0.199-1.79 0.597-0.512 0.388-0.91 0.98-1.194 1.776-0.284 0.786-0.426 1.776-0.426 2.969s0.142 2.188 0.426 2.983c0.284 0.786 0.682 1.378 1.194 1.776 0.51 0.388 1.108 0.582 1.79 0.582 0.576 0 1.088-0.133 1.534-0.398 0.444-0.275 0.804-0.672 1.078-1.193 0.284-0.53 0.456-1.174 0.512-1.932h7.272c-0.028 1.922-0.468 3.598-1.32 5.028-0.852 1.42-2.060 2.519-3.622 3.295-1.554 0.777-3.41 1.165-5.568 1.165z"></path>
<path fill="#475467" style="fill: var(--color1, #475467)" d="M188.097 19.545v-12.273h7.841v21.818h-7.443v-4.148h-0.227c-0.473 1.392-1.302 2.481-2.486 3.267-1.184 0.777-2.59 1.165-4.219 1.165-1.525 0-2.86-0.35-4.006-1.051-1.136-0.701-2.022-1.667-2.656-2.898-0.625-1.231-0.942-2.642-0.952-4.233v-13.921h7.841v12.273c0.009 1.080 0.284 1.927 0.824 2.543 0.549 0.616 1.316 0.923 2.301 0.923 0.653 0 1.217-0.137 1.69-0.412 0.483-0.284 0.852-0.682 1.108-1.193 0.265-0.521 0.393-1.141 0.383-1.861z"></path>
<path fill="#475467" style="fill: var(--color1, #475467)" d="M155.806 29.091v-21.818h7.614v4.148h0.227c0.398-1.534 1.028-2.656 1.889-3.366 0.871-0.71 1.889-1.065 3.054-1.065 0.341 0 0.677 0.028 1.009 0.085 0.341 0.047 0.668 0.118 0.98 0.213v6.69c-0.388-0.133-0.866-0.232-1.435-0.298s-1.056-0.099-1.463-0.099c-0.767 0-1.458 0.175-2.074 0.526-0.606 0.341-1.084 0.824-1.435 1.449-0.35 0.616-0.526 1.34-0.526 2.173v11.364h-7.841z"></path>
<path fill="#475467" style="fill: var(--color1, #475467)" d="M128.901 6.364v-6.364h25.284v6.364h-8.75v22.727h-7.784v-22.727h-8.75z"></path>
<path fill="#101828" style="fill: var(--color2, #101828)" d="M125.016 0v29.091h-7.841v-29.091h7.841z"></path>
<path fill="#101828" style="fill: var(--color2, #101828)" d="M102.493 29.489c-2.33 0-4.337-0.445-6.023-1.335-1.676-0.9-2.969-2.187-3.878-3.864-0.9-1.686-1.349-3.703-1.349-6.051 0-2.254 0.455-4.223 1.364-5.909s2.192-2.997 3.849-3.935c1.657-0.938 3.613-1.406 5.867-1.406 1.648 0 3.139 0.256 4.474 0.767s2.476 1.255 3.423 2.23c0.947 0.966 1.676 2.14 2.188 3.523s0.767 2.94 0.767 4.673v1.818h-19.489v-4.318h12.273c-0.009-0.625-0.17-1.174-0.483-1.648-0.303-0.483-0.715-0.857-1.236-1.122-0.511-0.275-1.094-0.412-1.747-0.412-0.635 0-1.217 0.137-1.747 0.412-0.53 0.265-0.956 0.634-1.278 1.108-0.313 0.473-0.478 1.027-0.497 1.662v4.659c0 0.701 0.147 1.326 0.44 1.875s0.715 0.98 1.264 1.293c0.549 0.312 1.212 0.469 1.989 0.469 0.54 0 1.032-0.076 1.477-0.227 0.455-0.152 0.843-0.369 1.165-0.653 0.322-0.294 0.559-0.644 0.71-1.051h7.159c-0.246 1.515-0.829 2.832-1.747 3.949-0.919 1.108-2.135 1.97-3.651 2.585-1.506 0.606-3.267 0.909-5.284 0.909z"></path>
<path fill="#101828" style="fill: var(--color2, #101828)" d="M89.673 7.273l-7.329 21.818h-9.091l-7.33-21.818h8.239l3.523 14.432h0.227l3.523-14.432h8.239z"></path>
<path fill="#101828" style="fill: var(--color2, #101828)" d="M50.112 29.432c-1.392 0-2.623-0.227-3.693-0.682-1.061-0.464-1.894-1.165-2.5-2.102s-0.909-2.131-0.909-3.58c0-1.193 0.204-2.211 0.611-3.054 0.407-0.852 0.975-1.548 1.705-2.088s1.577-0.952 2.543-1.236c0.975-0.284 2.026-0.469 3.153-0.554 1.222-0.095 2.202-0.208 2.94-0.341 0.748-0.142 1.288-0.336 1.619-0.582 0.331-0.256 0.497-0.592 0.497-1.009v-0.057c0-0.568-0.218-1.004-0.653-1.307s-0.994-0.455-1.676-0.455c-0.748 0-1.359 0.166-1.832 0.497-0.464 0.322-0.743 0.819-0.838 1.491h-7.216c0.095-1.326 0.516-2.547 1.264-3.665 0.758-1.127 1.861-2.027 3.31-2.699 1.449-0.682 3.257-1.023 5.426-1.023 1.563 0 2.964 0.185 4.205 0.554 1.241 0.36 2.296 0.866 3.168 1.52 0.871 0.644 1.534 1.402 1.989 2.273 0.464 0.862 0.696 1.799 0.696 2.813v14.943h-7.329v-3.068h-0.171c-0.436 0.814-0.966 1.472-1.591 1.974-0.616 0.502-1.321 0.866-2.117 1.094-0.786 0.227-1.652 0.341-2.599 0.341zM52.669 24.489c0.597 0 1.155-0.123 1.676-0.369 0.53-0.246 0.961-0.601 1.293-1.065s0.497-1.027 0.497-1.69v-1.818c-0.208 0.085-0.431 0.166-0.668 0.241-0.227 0.076-0.474 0.147-0.739 0.213-0.256 0.066-0.53 0.128-0.824 0.185-0.284 0.057-0.582 0.109-0.895 0.156-0.606 0.095-1.103 0.251-1.492 0.469-0.379 0.208-0.663 0.469-0.852 0.781-0.18 0.303-0.27 0.644-0.27 1.023 0 0.606 0.213 1.070 0.639 1.392s0.971 0.483 1.633 0.483z"></path>
<path fill="#101828" style="fill: var(--color2, #101828)" d="M26.904 29.091v-21.818h7.614v4.148h0.227c0.398-1.534 1.027-2.656 1.889-3.366 0.871-0.71 1.889-1.065 3.054-1.065 0.341 0 0.677 0.028 1.009 0.085 0.341 0.047 0.668 0.118 0.98 0.213v6.69c-0.388-0.133-0.866-0.232-1.435-0.298s-1.056-0.099-1.463-0.099c-0.767 0-1.458 0.175-2.074 0.526-0.606 0.341-1.084 0.824-1.435 1.449-0.35 0.616-0.526 1.34-0.526 2.173v11.364h-7.841z"></path>
<path fill="#101828" style="fill: var(--color2, #101828)" d="M0 6.364v-6.364h25.284v6.364h-8.75v22.727h-7.784v-22.727h-8.75z"></path>
</symbol>
<symbol id="icon-moon" viewBox="0 0 32 32">
<path d="M12.493 7.347c-0.24 0.853-0.36 1.747-0.36 2.653 0 5.44 4.427 9.867 9.867 9.867 0.907 0 1.8-0.12 2.653-0.36-1.387 3.413-4.747 5.827-8.653 5.827-5.147 0-9.333-4.187-9.333-9.333 0-3.907 2.413-7.267 5.827-8.653zM16 4c-6.627 0-12 5.373-12 12s5.373 12 12 12 12-5.373 12-12c0-0.613-0.053-1.227-0.133-1.813-1.307 1.827-3.44 3.013-5.867 3.013-3.973 0-7.2-3.227-7.2-7.2 0-2.413 1.187-4.56 3.013-5.867-0.587-0.080-1.2-0.133-1.813-0.133v0z"></path>
</symbol>
<symbol id="icon-sun" viewBox="0 0 32 32">
<path fill="#ffa500" style="fill: var(--color1, #ffa500)" d="M16 12c2.2 0 4 1.8 4 4s-1.8 4-4 4-4-1.8-4-4 1.8-4 4-4zM16 9.333c-3.68 0-6.667 2.987-6.667 6.667s2.987 6.667 6.667 6.667 6.667-2.987 6.667-6.667-2.987-6.667-6.667-6.667v0zM2.667 17.333h2.667c0.733 0 1.333-0.6 1.333-1.333s-0.6-1.333-1.333-1.333h-2.667c-0.733 0-1.333 0.6-1.333 1.333s0.6 1.333 1.333 1.333zM26.667 17.333h2.667c0.733 0 1.333-0.6 1.333-1.333s-0.6-1.333-1.333-1.333h-2.667c-0.733 0-1.333 0.6-1.333 1.333s0.6 1.333 1.333 1.333zM14.667 2.667v2.667c0 0.733 0.6 1.333 1.333 1.333s1.333-0.6 1.333-1.333v-2.667c0-0.733-0.6-1.333-1.333-1.333s-1.333 0.6-1.333 1.333zM14.667 26.667v2.667c0 0.733 0.6 1.333 1.333 1.333s1.333-0.6 1.333-1.333v-2.667c0-0.733-0.6-1.333-1.333-1.333s-1.333 0.6-1.333 1.333zM7.987 6.107c-0.52-0.52-1.373-0.52-1.88 0-0.52 0.52-0.52 1.373 0 1.88l1.413 1.413c0.52 0.52 1.373 0.52 1.88 0s0.52-1.373 0-1.88l-1.413-1.413zM24.48 22.6c-0.52-0.52-1.373-0.52-1.88 0-0.52 0.52-0.52 1.373 0 1.88l1.413 1.413c0.52 0.52 1.373 0.52 1.88 0 0.52-0.52 0.52-1.373 0-1.88l-1.413-1.413zM25.893 7.987c0.52-0.52 0.52-1.373 0-1.88-0.52-0.52-1.373-0.52-1.88 0l-1.413 1.413c-0.52 0.52-0.52 1.373 0 1.88s1.373 0.52 1.88 0l1.413-1.413zM9.4 24.48c0.52-0.52 0.52-1.373 0-1.88-0.52-0.52-1.373-0.52-1.88 0l-1.413 1.413c-0.52 0.52-0.52 1.373 0 1.88s1.373 0.52 1.88 0l1.413-1.413z"></path>
</symbol>
</defs>
</svg>